<svg width="109" height="92" viewBox="0 0 109 92" fill="none" xmlns="http://www.w3.org/2000/svg">
<path d="M105.601 48.8625C105.152 48.8647 104.707 48.7921 104.291 48.649C103.875 48.5059 103.497 48.295 103.178 48.0285L54.4054 6.90425L5.63308 48.0285C4.98016 48.4996 4.14029 48.7458 3.28131 48.7179C2.42233 48.6899 1.6075 48.3899 0.999659 47.8777C0.391815 47.3655 0.0357241 46.679 0.00254538 45.9552C-0.0306333 45.2314 0.261544 44.5237 0.82069 43.9736L52.0163 0.836268C52.6558 0.300643 53.5208 0 54.4225 0C55.3242 0 56.1892 0.300643 56.8287 0.836268L108.024 43.9736C108.494 44.3773 108.812 44.8887 108.939 45.4439C109.065 45.999 108.995 46.5733 108.736 47.095C108.478 47.6166 108.042 48.0625 107.485 48.3769C106.927 48.6912 106.272 48.8601 105.601 48.8625Z" fill="black"/>
<path d="M54.4055 16.6246L13.449 51.2495V86.2483C13.449 87.7737 14.1681 89.2366 15.4483 90.3153C16.7284 91.3939 18.4647 91.9999 20.2751 91.9999H44.1663V63.2417H64.6446V91.9999H88.5359C90.3463 91.9999 92.0825 91.3939 93.3627 90.3153C94.6428 89.2366 95.362 87.7737 95.362 86.2483V51.0482L54.4055 16.6246Z" fill="black"/>
</svg>
