<svg width="90" height="47" viewBox="0 0 90 47" fill="none" xmlns="http://www.w3.org/2000/svg">
    <path d="M23.4783 31.3043C21.3261 31.3043 19.4843 30.5387 17.953 29.0074C16.4217 27.4761 15.6548 25.633 15.6522 23.4783C15.6522 21.3261 16.4191 19.4843 17.953 17.953C19.487 16.4217 21.3287 15.6548 23.4783 15.6522C25.6304 15.6522 27.4735 16.4191 29.0074 17.953C30.5413 19.487 31.307 21.3287 31.3043 23.4783C31.3043 25.6304 30.5387 27.4735 29.0074 29.0074C27.4761 30.5413 25.633 31.307 23.4783 31.3043ZM23.4783 46.9565C16.9565 46.9565 11.413 44.6739 6.84783 40.1087C2.28261 35.5435 0 30 0 23.4783C0 16.9565 2.28261 11.413 6.84783 6.84783C11.413 2.28261 16.9565 0 23.4783 0C27.8478 0 31.8104 1.07609 35.3661 3.22826C38.9217 5.38043 41.7417 8.21739 43.8261 11.7391H78.2609L90 23.4783L72.3913 41.087L64.5652 35.2174L56.7391 41.087L48.4239 35.2174H43.8261C41.7391 38.7391 38.9191 41.5761 35.3661 43.7283C31.813 45.8804 27.8504 46.9565 23.4783 46.9565ZM23.4783 39.1304C27.1304 39.1304 30.343 38.0217 33.1161 35.8043C35.8891 33.587 37.7309 30.7826 38.6413 27.3913H50.8696L56.5435 31.4022L64.5652 25.4348L71.5109 30.8152L78.8478 23.4783L74.9348 19.5652H38.6413C37.7283 16.1739 35.8865 13.3696 33.1161 11.1522C30.3457 8.93478 27.133 7.82609 23.4783 7.82609C19.1739 7.82609 15.4891 9.3587 12.4239 12.4239C9.3587 15.4891 7.82609 19.1739 7.82609 23.4783C7.82609 27.7826 9.3587 31.4674 12.4239 34.5326C15.4891 37.5978 19.1739 39.1304 23.4783 39.1304Z" fill="black"/>
</svg>
