<svg width="60" height="60" viewBox="0 0 60 60" fill="none" xmlns="http://www.w3.org/2000/svg">
<path d="M59.6055 54.7197C55.7969 47.7907 49.8497 42.3918 42.7214 39.392C46.2662 36.6361 48.8847 32.7939 50.2059 28.4097C51.5271 24.0254 51.484 19.3214 50.0828 14.964C48.6816 10.6065 45.9933 6.81652 42.3986 4.13086C38.8039 1.44519 34.4852 0 30.0541 0C25.6231 0 21.3043 1.44519 17.7097 4.13086C14.115 6.81652 11.4267 10.6065 10.0255 14.964C8.62423 19.3214 8.58117 24.0254 9.90236 28.4097C11.2236 32.7939 13.842 36.6361 17.3869 39.392C10.2586 42.3918 4.3114 47.7907 0.502772 54.7197C0.266776 55.1131 0.109485 55.5516 0.0402509 56.0092C-0.0289829 56.4668 -0.00874679 56.9342 0.0997566 57.3836C0.20826 57.8329 0.402816 58.2551 0.671857 58.6249C0.940898 58.9948 1.27893 59.3048 1.66586 59.5365C2.0528 59.7683 2.48073 59.917 2.92422 59.9739C3.3677 60.0307 3.8177 59.9946 4.24744 59.8676C4.67719 59.7406 5.07791 59.5253 5.42579 59.2346C5.77367 58.9438 6.06161 58.5835 6.27248 58.1751C11.306 49.1565 20.1953 43.7775 30.0541 43.7775C39.9129 43.7775 48.8022 49.1593 53.8358 58.1751C54.2928 58.9369 55.0176 59.4845 55.8571 59.7023C56.6966 59.9201 57.5848 59.791 58.3341 59.3423C59.0834 58.8935 59.635 58.1603 59.8723 57.2977C60.1095 56.435 60.0139 55.5106 59.6055 54.7197ZM15.609 21.8931C15.609 18.9316 16.4562 16.0366 18.0435 13.5742C19.6307 11.1118 21.8867 9.19262 24.5262 8.05931C27.1657 6.92599 30.0702 6.62947 32.8722 7.20722C35.6743 7.78498 38.2482 9.21107 40.2684 11.3052C42.2886 13.3993 43.6643 16.0673 44.2217 18.9719C44.7791 21.8765 44.493 24.8871 43.3997 27.6232C42.3064 30.3593 40.4549 32.6978 38.0794 34.3431C35.7039 35.9884 32.9111 36.8666 30.0541 36.8666C26.2244 36.862 22.5528 35.283 19.8448 32.4759C17.1367 29.6688 15.6134 25.8629 15.609 21.8931Z" fill="black"/>
</svg>
