<svg width="35" height="35" viewBox="0 0 35 35" fill="none" xmlns="http://www.w3.org/2000/svg">
<path d="M17.4125 28C18.025 28 18.543 27.7882 18.9665 27.3647C19.39 26.9412 19.6012 26.4238 19.6 25.8125C19.6 25.2 19.3888 24.682 18.9665 24.2585C18.5442 23.835 18.0262 23.6238 17.4125 23.625C16.8 23.625 16.2826 23.8367 15.8602 24.2602C15.4379 24.6837 15.2262 25.2012 15.225 25.8125C15.225 26.425 15.4367 26.943 15.8602 27.3665C16.2837 27.79 16.8012 28.0012 17.4125 28ZM15.8375 21.2625H19.075C19.075 20.3 19.1847 19.5417 19.404 18.9875C19.6233 18.4333 20.2428 17.675 21.2625 16.7125C22.0208 15.9542 22.6187 15.232 23.0562 14.546C23.4937 13.86 23.7125 13.0363 23.7125 12.075C23.7125 10.4417 23.1146 9.1875 21.9187 8.3125C20.7229 7.4375 19.3083 7 17.675 7C16.0125 7 14.6638 7.4375 13.629 8.3125C12.5942 9.1875 11.872 10.2375 11.4625 11.4625L14.35 12.6C14.4958 12.075 14.8242 11.5063 15.3352 10.8938C15.8462 10.2812 16.6262 9.975 17.675 9.975C18.6083 9.975 19.3083 10.2305 19.775 10.7415C20.2417 11.2525 20.475 11.8137 20.475 12.425C20.475 13.0083 20.3 13.5555 19.95 14.0665C19.6 14.5775 19.1625 15.0512 18.6375 15.4875C17.3542 16.625 16.5667 17.4854 16.275 18.0687C15.9833 18.6521 15.8375 19.7167 15.8375 21.2625ZM17.5 35C15.0792 35 12.8042 34.5409 10.675 33.6227C8.54583 32.7046 6.69375 31.4574 5.11875 29.8812C3.54375 28.3062 2.29717 26.4542 1.379 24.325C0.460833 22.1958 0.00116667 19.9208 0 17.5C0 15.0792 0.459667 12.8042 1.379 10.675C2.29833 8.54583 3.54492 6.69375 5.11875 5.11875C6.69375 3.54375 8.54583 2.29717 10.675 1.379C12.8042 0.460833 15.0792 0.00116667 17.5 0C19.9208 0 22.1958 0.459667 24.325 1.379C26.4542 2.29833 28.3062 3.54492 29.8812 5.11875C31.4562 6.69375 32.7034 8.54583 33.6227 10.675C34.5421 12.8042 35.0012 15.0792 35 17.5C35 19.9208 34.5403 22.1958 33.621 24.325C32.7017 26.4542 31.4551 28.3062 29.8812 29.8812C28.3062 31.4562 26.4542 32.7034 24.325 33.6227C22.1958 34.5421 19.9208 35.0012 17.5 35Z" fill="#F6F8FD"/>
</svg>
