<svg width="96" height="93" viewBox="0 0 96 93" fill="none" xmlns="http://www.w3.org/2000/svg">
    <g clip-path="url(#clip0_437_430)">
    <path fill-rule="evenodd" clip-rule="evenodd" d="M48 93C60.7304 93 72.9394 88.1009 81.9411 79.3805C90.9429 70.66 96 58.8326 96 46.5C96 34.1674 90.9429 22.34 81.9411 13.6195C72.9394 4.89909 60.7304 0 48 0C35.2696 0 23.0606 4.89909 14.0589 13.6195C5.05713 22.34 0 34.1674 0 46.5C0 58.8326 5.05713 70.66 14.0589 79.3805C23.0606 88.1009 35.2696 93 48 93ZM29.562 29.0044C27.852 31.4979 27 33.9624 27 36.3862C27 37.5662 27.54 38.6648 28.62 39.6761C29.7 40.6875 31.02 41.1874 32.586 41.1874C35.244 41.1874 37.05 39.7459 38.004 36.8512C39.012 34.0903 40.242 31.9978 41.7 30.5738C43.158 29.1555 45.42 28.4464 48.504 28.4464C51.138 28.4464 53.286 29.1439 54.954 30.5563C56.616 31.9629 57.45 33.6951 57.45 35.7411C57.4573 36.7675 57.1751 37.7764 56.634 38.6589C56.0838 39.5587 55.4051 40.3786 54.618 41.0944C53.3555 42.2127 52.059 43.2943 50.73 44.3377C48.69 45.9769 47.064 47.3893 45.858 48.5809C44.658 49.7724 43.686 51.1558 42.96 52.7252C41.028 59.9618 51.06 60.543 53.376 55.3757C53.658 54.8758 54.084 54.3294 54.654 53.7249C55.23 53.1263 55.992 52.4288 56.946 51.6324C59.3735 49.6737 61.7619 47.6699 64.11 45.6223C65.436 44.4366 66.582 43.0183 67.548 41.3792C68.5438 39.63 69.0447 37.6568 69 35.6597C69 32.8988 68.154 30.3412 66.456 27.9872C64.764 25.6273 62.364 23.7673 59.256 22.3956C56.148 21.0296 52.566 20.3438 48.504 20.3438C44.136 20.3438 40.314 21.1575 37.038 22.8024C33.762 24.4416 31.272 26.5108 29.562 29.0044ZM42.402 70.1569C42.402 71.6984 43.0341 73.1769 44.1594 74.2669C45.2846 75.357 46.8107 75.9694 48.402 75.9694C49.9933 75.9694 51.5194 75.357 52.6446 74.2669C53.7699 73.1769 54.402 71.6984 54.402 70.1569C54.402 68.6153 53.7699 67.1369 52.6446 66.0468C51.5194 64.9568 49.9933 64.3444 48.402 64.3444C46.8107 64.3444 45.2846 64.9568 44.1594 66.0468C43.0341 67.1369 42.402 68.6153 42.402 70.1569Z" fill="black"/></g><defs>
    <clipPath id="clip0_437_430">
    <rect width="96" height="93" fill="white"/>
    </clipPath>
    </defs>
</svg>
