<svg width="23" height="23" viewBox="0 0 23 23" fill="none" xmlns="http://www.w3.org/2000/svg">
<path d="M0.958413 9.58222C0.704226 9.58222 0.46045 9.48124 0.280713 9.3015C0.100976 9.12177 0 8.87799 0 8.6238V0.958413C0 0.704226 0.100976 0.46045 0.280713 0.280713C0.46045 0.100976 0.704226 0 0.958413 0H8.62572C8.87991 0 9.12368 0.100976 9.30342 0.280713C9.48316 0.46045 9.58413 0.704226 9.58413 0.958413V8.6238C9.58413 8.87799 9.48316 9.12177 9.30342 9.3015C9.12368 9.48124 8.87991 9.58222 8.62572 9.58222H0.958413ZM14.3762 9.58222C14.122 9.58222 13.8782 9.48124 13.6985 9.3015C13.5188 9.12177 13.4178 8.87799 13.4178 8.6238V0.958413C13.4178 0.704226 13.5188 0.46045 13.6985 0.280713C13.8782 0.100976 14.122 0 14.3762 0H22.0416C22.2958 0 22.5396 0.100976 22.7193 0.280713C22.899 0.46045 23 0.704226 23 0.958413V8.6238C23 8.87799 22.899 9.12177 22.7193 9.3015C22.5396 9.48124 22.2958 9.58222 22.0416 9.58222H14.3762ZM0.958413 23C0.704226 23 0.46045 22.899 0.280713 22.7193C0.100976 22.5396 0 22.2958 0 22.0416V14.3743C0 14.1201 0.100976 13.8763 0.280713 13.6966C0.46045 13.5168 0.704226 13.4159 0.958413 13.4159H8.62572C8.87991 13.4159 9.12368 13.5168 9.30342 13.6966C9.48316 13.8763 9.58413 14.1201 9.58413 14.3743V22.0416C9.58413 22.2958 9.48316 22.5396 9.30342 22.7193C9.12368 22.899 8.87991 23 8.62572 23H0.958413ZM14.3762 23C14.122 23 13.8782 22.899 13.6985 22.7193C13.5188 22.5396 13.4178 22.2958 13.4178 22.0416V14.3743C13.4178 14.1201 13.5188 13.8763 13.6985 13.6966C13.8782 13.5168 14.122 13.4159 14.3762 13.4159H22.0416C22.2958 13.4159 22.5396 13.5168 22.7193 13.6966C22.899 13.8763 23 14.1201 23 14.3743V22.0416C23 22.2958 22.899 22.5396 22.7193 22.7193C22.5396 22.899 22.2958 23 22.0416 23H14.3762Z" fill="#F6F8FD"/>
</svg>
